<?xml version="1.0" encoding="UTF-8"?>
<svg xmlns="http://www.w3.org/2000/svg" viewBox="0 0 256 256" role="img" aria-labelledby="title desc">
  <title>DeepShape Mark</title>
  <desc>Icon-only mark combining AI monogram with a Bézier curve and control handles.</desc>

  <defs>
    <radialGradient id="bg" cx="50%" cy="45%" r="70%">
      <stop offset="0%" stop-color="#6EE7F9"/>
      <stop offset="55%" stop-color="#8B5CF6"/>
      <stop offset="100%" stop-color="#22D3EE"/>
    </radialGradient>
    <linearGradient id="curve" x1="0" y1="0" x2="1" y2="1">
      <stop offset="0%" stop-color="#F0FBFF"/>
      <stop offset="100%" stop-color="#E9D5FF"/>
    </linearGradient>
    <filter id="soft" x="-20%" y="-20%" width="140%" height="140%">
      <feGaussianBlur stdDeviation="1.2"/>
    </filter>
  </defs>

  <!-- Badge -->
  <circle cx="128" cy="128" r="104" fill="url(#bg)"/>
  <!-- subtle inner ring -->
  <circle cx="128" cy="128" r="92" fill="none" stroke="#ffffff" stroke-opacity="0.16" stroke-width="8"/>

  <!-- Abstract 'S' using Bézier curves with control points/handles -->
  <g>
    <!-- Soft glow for S -->
    <path d="M86 94 C 112 74, 152 74, 174 92 C 190 106, 186 124, 168 132 C 150 140, 124 140, 110 148 C 96 156, 98 170, 116 180 C 136 190, 168 188, 188 174" fill="none" stroke="url(#curve)" stroke-width="9" stroke-linecap="round" filter="url(#soft)"/>
    <!-- Clean monoline S -->
    <path d="M86 94 C 112 74, 152 74, 174 92 C 190 106, 186 124, 168 132 C 150 140, 124 140, 110 148 C 96 156, 98 170, 116 180 C 136 190, 168 188, 188 174" fill="none" stroke="#ffffff" stroke-opacity="0.96" stroke-width="4" stroke-linecap="round"/>

    <!-- Minimal Bezier hints -->
    <g stroke="#ffffff" stroke-opacity="0.35" stroke-width="1.5" fill="none">
      <path d="M86 94 L112 74"/>
      <path d="M174 92 L186 124"/>
    </g>
    <g fill="#ffffff" fill-opacity="0.9">
      <circle cx="86" cy="94" r="3.2"/>
      <circle cx="174" cy="92" r="3.2"/>
      <circle cx="112" cy="74" r="2.6"/>
      <circle cx="186" cy="124" r="2.6"/>
    </g>
  </g>

</svg>
